{"title":"Vacation.2015.CAM.x264-MenaceIISociety","uid":12341281,"size":806225304,"categoryP":"video","categoryS":"movies","magnet":"?xt=urn:btih:466f7b2473f0d684abc8ba04a433fe38f31d24fc&amp;dn=Vacation.2015.CAM.x264-MenaceIISociety&amp;tr=udp%3A%2F%2Ftracker.openbittorrent.com%3A80&amp;tr=udp%3A%2F%2Fopen.demonii.com%3A1337&amp;tr=udp%3A%2F%2Ftracker.coppersurfer.tk%3A6969&amp;tr=udp%3A%2F%2Fexodus.desync.com%3A6969","seeders":2,"leechers":0,"uploader":"TvTeam","files":4,"time":1441303407,"description":"------------------------------------------------------------------------\n\n &lt;a href=&quot; https://www.torrenting.com&quot; rel=&quot;nofollow&quot; target=&quot;_NEW&quot;&gt; https://www.torrenting.com&lt;/a&gt;\n\nSign up is OPEN - for time being. Come and have fun\n\nVacation.2015.CAM.x264-MenaceIISociety &lt;a href=&quot;\nhttp://www.imdb.com/title/tt1524930/&quot; rel=&quot;nofollow&quot; target=&quot;_NEW&quot;&gt;\nhttp://www.imdb.com/title/tt1524930/&lt;/a&gt;\n\nSource: MRG HQCAM FULL [THANKS]\n\nNOTE: heres something different, gave it a -6.800 rotate, fixed perspective a bit, didnt want to crop as u lose alot of pic doing so :) its only a cam, and the audios pretty good too, enjoy.  [url]https://i.gyazo.com/7cb83dd928ff9605e58799036285f388.png[/url] \n\nGeneral\nComplete name                            : Vacation.2015.CAM.x264-MenaceIISociety.mp4\nFormat                                   : MPEG-4\nFormat profile                           : Base Media\nCodec ID                                 : isom\nFile size                                : 755 MiB\nDuration                                 : 1h 34mn\nOverall bit rate mode                    : Variable\nOverall bit rate                         : 1 116 Kbps\nEncoded date                             : UTC 2015-08-30 16:29:15\nTagged date                              : UTC 2015-08-30 16:29:15\n\nVideo\nID                                       : 1\nFormat                                   : AVC\nFormat/Info                              : Advanced Video Codec\nFormat profile                           : &lt;a class=&quot;__cf_email__&quot; href=&quot;/cdn-cgi/l/email-protection&quot; data-cfemail=&quot;b1f9d8d6d9f1fd859f80&quot;&gt;[email&amp;#160;protected]&lt;/a&gt;&lt;script data-cfhash='f9e31' type=&quot;text/javascript&quot;&gt;\n/* &lt;![CDATA[ */!function(){try{var t=&quot;currentScript&quot;in document?document.currentScript:function(){for(var t=document.getElementsByTagName(&quot;script&quot;),e=t.length;e--;)if(t[e].getAttribute(&quot;data-cfhash&quot;))return t[e]}();if(t&amp;&amp;t.previousSibling){var e,r,n,i,c=t.previousSibling,a=c.getAttribute(&quot;data-cfemail&quot;);if(a){for(e=&quot;&quot;,r=parseInt(a.substr(0,2),16),n=2;a.length-n;n+=2)i=parseInt(a.substr(n,2),16)^r,e+=String.fromCharCode(i);e=document.createTextNode(e),c.parentNode.replaceChild(e,c)}t.parentNode.removeChild(t);}}catch(u){}}()/* ]]&gt; */&lt;/script&gt;\nFormat settings, CABAC                   : Yes\nFormat settings, ReFrames                : 3 frames\nCodec ID                                 : avc1\nCodec ID/Info                            : Advanced Video Coding\nDuration                                 : 1h 34mn\nBit rate mode                            : Variable\nBit rate                                 : 977 Kbps\nMaximum bit rate                         : 40.0 Mbps\nWidth                                    : 704 pixels\nHeight                                   : 288 pixels\nDisplay aspect ratio                     : 2.40:1\nFrame rate mode                          : Constant\nFrame rate                               : 29.970 fps\nColor space                              : YUV\nChroma subsampling                       : 4:2:0\nBit depth                                : 8 bits\nScan type                                : Progressive\nBits/(Pixel*Frame)                       : 0.161\nStream size                              : 661 MiB (88%)\nWriting library                          : x264 core 148 r2579 73ae2d1\n\nAudio\nID                                       : 2\nFormat                                   : AAC\nFormat/Info                              : Advanced Audio Codec\nFormat profile                           : LC\nCodec ID                                 : 40\nDuration                                 : 1h 34mn\nBit rate mode                            : Variable\nBit rate                                 : 132 Kbps\nMaximum bit rate                         : 143 Kbps\nChannel(s)                               : 2 channels\nChannel positions                        : Front: L R\nSampling rate                            : 48.0 KHz\nCompression mode                         : Lossy\nStream size                              : 90.7 MiB (12%)\nEncoded date                             : UTC 2015-08-30 16:25:20\nTagged date                              : UTC 2015-08-30 16:33:22\n\n[img]http://s1.postimg.org/nvqbplhin/image.jpg[/img]\n[img]http://s1.postimg.org/fawzyf7cf/image.jpg[/img]\n[img]http://s1.postimg.org/dkdywxptb/image.jpg[/img]\n[img]http://s1.postimg.org/mw00tw2cv/image.jpg[/img]\n[img]http://s1.postimg.org/4ugvw38bz/image.jpg[/img]\n[img]http://s1.postimg.org/z9cv0ss1b/image.jpg[/img]\n[img]http://s1.postimg.org/6c2c7nd2n/image.jpg[/img]\n[img]http://s1.postimg.org/dqro00yy7/image.jpg[/img] \n \n[img]http://s17.postimg.org/r1iiyw8yn/Untitled_1.png[/img][/center]","torrent":{"xt":"urn:btih:466f7b2473f0d684abc8ba04a433fe38f31d24fc","amp;dn":"Vacation.2015.CAM.x264-MenaceIISociety","amp;tr":["udp%3A%2F%2Ftracker.openbittorrent.com%3A80","udp%3A%2F%2Fopen.demonii.com%3A1337","udp%3A%2F%2Ftracker.coppersurfer.tk%3A6969","udp%3A%2F%2Fexodus.desync.com%3A6969"],"infoHash":"466f7b2473f0d684abc8ba04a433fe38f31d24fc","infoHashBuffer":{"type":"Buffer","data":[70,111,123,36,115,240,214,132,171,200,186,4,164,51,254,56,243,29,36,252]},"announce":[],"urlList":[]}}